<svg xmlns="http://www.w3.org/2000/svg" viewBox="0 0 512 512">
  <defs>
    <linearGradient id="bg" x1="0" y1="0" x2="1" y2="1">
      <stop offset="0" stop-color="#F0A184"/>
      <stop offset="1" stop-color="#E8815B"/>
    </linearGradient>
  </defs>
  <rect width="512" height="512" rx="112" fill="url(#bg)"/>
  <!-- 芽（育成）-->
  <path d="M256 400 L256 268" stroke="#FFF8F5" stroke-width="26" stroke-linecap="round"/>
  <path d="M256 300 C 250 236, 190 210, 148 216 C 150 268, 200 302, 256 300 Z" fill="#FFF8F5"/>
  <path d="M256 268 C 262 214, 316 190, 360 196 C 358 244, 310 274, 256 268 Z" fill="#FFF8F5" opacity="0.92"/>
  <!-- 声（音の波紋）-->
  <path d="M352 320 a64 64 0 0 1 0 84" stroke="#FFF8F5" stroke-width="18" stroke-linecap="round" fill="none" opacity="0.95"/>
  <path d="M394 300 a104 104 0 0 1 0 124" stroke="#FFF8F5" stroke-width="18" stroke-linecap="round" fill="none" opacity="0.6"/>
  <path d="M160 320 a64 64 0 0 0 0 84" stroke="#FFF8F5" stroke-width="18" stroke-linecap="round" fill="none" opacity="0.95"/>
  <path d="M118 300 a104 104 0 0 0 0 124" stroke="#FFF8F5" stroke-width="18" stroke-linecap="round" fill="none" opacity="0.6"/>
</svg>
